G04*
G04 #@! TF.GenerationSoftware,Altium Limited,Altium Designer,23.6.0 (18)*
G04*
G04 Layer_Color=16711935*
%FSLAX25Y25*%
%MOIN*%
G70*
G04*
G04 #@! TF.SameCoordinates,9EB9F688-6EA2-4756-8BD5-BABC090EB3C1*
G04*
G04*
G04 #@! TF.FilePolarity,Negative*
G04*
G01*
G75*
G04:AMPARAMS|DCode=65|XSize=39.37mil|YSize=70.87mil|CornerRadius=19.68mil|HoleSize=0mil|Usage=FLASHONLY|Rotation=180.000|XOffset=0mil|YOffset=0mil|HoleType=Round|Shape=RoundedRectangle|*
%AMROUNDEDRECTD65*
21,1,0.03937,0.03150,0,0,180.0*
21,1,0.00000,0.07087,0,0,180.0*
1,1,0.03937,0.00000,0.01575*
1,1,0.03937,0.00000,0.01575*
1,1,0.03937,0.00000,-0.01575*
1,1,0.03937,0.00000,-0.01575*
%
%ADD65ROUNDEDRECTD65*%
G04:AMPARAMS|DCode=66|XSize=39.37mil|YSize=86.61mil|CornerRadius=19.68mil|HoleSize=0mil|Usage=FLASHONLY|Rotation=180.000|XOffset=0mil|YOffset=0mil|HoleType=Round|Shape=RoundedRectangle|*
%AMROUNDEDRECTD66*
21,1,0.03937,0.04724,0,0,180.0*
21,1,0.00000,0.08661,0,0,180.0*
1,1,0.03937,0.00000,0.02362*
1,1,0.03937,0.00000,0.02362*
1,1,0.03937,0.00000,-0.02362*
1,1,0.03937,0.00000,-0.02362*
%
%ADD66ROUNDEDRECTD66*%
%ADD67C,0.20276*%
%ADD68C,0.05472*%
%ADD69R,0.05472X0.05472*%
%ADD70C,0.09528*%
%ADD71C,0.12795*%
%ADD72C,0.02953*%
%ADD73C,0.02559*%
%ADD74C,0.05591*%
%ADD92R,0.06496X0.04134*%
D65*
X367508Y420780D02*
D03*
X333492D02*
D03*
X396492Y421280D02*
D03*
X430508D02*
D03*
D66*
X367508Y436528D02*
D03*
X333492D02*
D03*
X396492Y437028D02*
D03*
X430508D02*
D03*
D67*
X448000Y429000D02*
D03*
X448500Y149500D02*
D03*
X169000Y149000D02*
D03*
X168500Y428500D02*
D03*
D68*
X203508Y385862D02*
D03*
X194492D02*
D03*
X239492D02*
D03*
X248508D02*
D03*
X231500Y411846D02*
D03*
X223469D02*
D03*
X215437D02*
D03*
X235516Y404839D02*
D03*
X227484D02*
D03*
X219453D02*
D03*
X211421D02*
D03*
D69*
X207406Y411846D02*
D03*
D70*
X189492Y408343D02*
D03*
X253508D02*
D03*
D71*
X196500Y421846D02*
D03*
X246500D02*
D03*
D72*
X343500Y384500D02*
D03*
X397000Y384000D02*
D03*
X347000Y409500D02*
D03*
X353528D02*
D03*
X410000Y407000D02*
D03*
X417000Y407500D02*
D03*
X213500Y383500D02*
D03*
X197000Y390138D02*
D03*
X216362Y383500D02*
D03*
X197000Y393000D02*
D03*
X234103Y340274D02*
D03*
X237528Y350528D02*
D03*
X235504Y348504D02*
D03*
X232278Y355778D02*
D03*
X230254Y353754D02*
D03*
X204500Y373500D02*
D03*
X422000Y410500D02*
D03*
Y414000D02*
D03*
X406500D02*
D03*
X401500Y411000D02*
D03*
X402000Y369000D02*
D03*
X342000Y358500D02*
D03*
X366000Y406500D02*
D03*
X362500Y414500D02*
D03*
X359500Y412000D02*
D03*
X342000Y414500D02*
D03*
X345000Y412000D02*
D03*
X319500Y371500D02*
D03*
X315000Y389283D02*
D03*
X322000Y354000D02*
D03*
X253500Y175500D02*
D03*
X181846D02*
D03*
X160000Y189500D02*
D03*
X349000Y248000D02*
D03*
X321365Y243135D02*
D03*
X207000Y195500D02*
D03*
X207500Y191500D02*
D03*
X206500Y187500D02*
D03*
X204500Y155000D02*
D03*
X204000Y161000D02*
D03*
X368000Y385500D02*
D03*
X336500Y370500D02*
D03*
X365000Y378000D02*
D03*
X344500Y234500D02*
D03*
X255425Y254575D02*
D03*
X261000Y252000D02*
D03*
X253000Y250500D02*
D03*
X358000Y250000D02*
D03*
X354197Y248819D02*
D03*
X362209Y248653D02*
D03*
X351835Y265931D02*
D03*
X207319Y323334D02*
D03*
X210666Y338681D02*
D03*
X236500Y335500D02*
D03*
X347100Y265115D02*
D03*
X343623Y380952D02*
D03*
X221000Y314500D02*
D03*
X337500Y389500D02*
D03*
X369000Y371500D02*
D03*
X362500Y364000D02*
D03*
X352000Y240500D02*
D03*
X291500Y227000D02*
D03*
X270500Y188500D02*
D03*
X327500Y252972D02*
D03*
X362000Y297000D02*
D03*
X358500Y303000D02*
D03*
X356284Y300216D02*
D03*
X343000Y272500D02*
D03*
X344500Y245500D02*
D03*
X353500Y297784D02*
D03*
X342000Y292500D02*
D03*
X189500Y148000D02*
D03*
X324000Y282500D02*
D03*
X186500Y150500D02*
D03*
X307069Y269500D02*
D03*
X309000Y265500D02*
D03*
X333500Y292000D02*
D03*
X335500Y281500D02*
D03*
X259500Y220000D02*
D03*
X257500Y217500D02*
D03*
X451500Y195500D02*
D03*
X255500Y146000D02*
D03*
X246000Y220500D02*
D03*
X438000Y233500D02*
D03*
X270500Y231500D02*
D03*
X249722Y232778D02*
D03*
X294000Y386500D02*
D03*
X420500Y254000D02*
D03*
X232500Y371500D02*
D03*
X251000Y219000D02*
D03*
X441500Y254000D02*
D03*
X205482Y298000D02*
D03*
X222000Y187362D02*
D03*
X217500Y185431D02*
D03*
X223000Y192000D02*
D03*
X220000Y191500D02*
D03*
X232362Y308500D02*
D03*
X241654Y305654D02*
D03*
X214500Y247500D02*
D03*
X210500Y248500D02*
D03*
X208000Y232500D02*
D03*
X236000Y328500D02*
D03*
X236561Y331307D02*
D03*
X201500Y301500D02*
D03*
X460000Y225000D02*
D03*
D73*
X454500Y262500D02*
D03*
X415233Y327057D02*
D03*
X328500Y208000D02*
D03*
Y217000D02*
D03*
X337500D02*
D03*
Y208000D02*
D03*
X283233Y416057D02*
D03*
X174233Y397557D02*
D03*
X178733Y223057D02*
D03*
X171233Y267057D02*
D03*
X370733Y337057D02*
D03*
X388500Y268500D02*
D03*
X387000Y235000D02*
D03*
X253500Y275000D02*
D03*
X286500Y257000D02*
D03*
X294000Y295500D02*
D03*
X337000Y397000D02*
D03*
X401500Y396500D02*
D03*
X258500Y249500D02*
D03*
X352000Y372500D02*
D03*
X224000Y327500D02*
D03*
X320500Y196000D02*
D03*
X333000Y196500D02*
D03*
X277500Y134000D02*
D03*
Y136500D02*
D03*
Y139000D02*
D03*
Y141500D02*
D03*
Y144000D02*
D03*
Y146500D02*
D03*
Y149000D02*
D03*
Y151500D02*
D03*
Y154000D02*
D03*
Y156500D02*
D03*
Y159000D02*
D03*
X376500Y135000D02*
D03*
X376482Y138251D02*
D03*
Y140751D02*
D03*
Y143251D02*
D03*
Y145751D02*
D03*
Y148251D02*
D03*
Y150751D02*
D03*
Y153251D02*
D03*
Y155751D02*
D03*
Y158251D02*
D03*
Y160751D02*
D03*
X374982Y162751D02*
D03*
X372982Y164751D02*
D03*
X370982Y166751D02*
D03*
X368982Y168251D02*
D03*
X366482D02*
D03*
X363982D02*
D03*
X361482D02*
D03*
X358982D02*
D03*
X356482D02*
D03*
X353918Y168312D02*
D03*
X351482Y168251D02*
D03*
X348982D02*
D03*
X346482D02*
D03*
X343982D02*
D03*
X341482D02*
D03*
X338982D02*
D03*
X336482D02*
D03*
X279482Y161251D02*
D03*
X281482Y163251D02*
D03*
X283482Y165251D02*
D03*
X285482Y166751D02*
D03*
X287482Y168251D02*
D03*
X289982D02*
D03*
X292482D02*
D03*
X294982D02*
D03*
X297482D02*
D03*
X299982D02*
D03*
X302482D02*
D03*
X304982D02*
D03*
X307482D02*
D03*
X309982D02*
D03*
X312482D02*
D03*
X314982D02*
D03*
X317482D02*
D03*
X287000Y340500D02*
D03*
X271342Y373400D02*
D03*
X309000Y403500D02*
D03*
X351000Y428500D02*
D03*
X387000Y367500D02*
D03*
X415500Y433000D02*
D03*
X351500Y218500D02*
D03*
X236500Y197000D02*
D03*
X320000Y193500D02*
D03*
Y191000D02*
D03*
Y188500D02*
D03*
Y186000D02*
D03*
Y176500D02*
D03*
Y174000D02*
D03*
Y171500D02*
D03*
Y169000D02*
D03*
X334000D02*
D03*
Y171500D02*
D03*
Y174000D02*
D03*
Y176500D02*
D03*
Y179000D02*
D03*
Y181500D02*
D03*
Y184000D02*
D03*
Y186500D02*
D03*
Y189000D02*
D03*
Y191500D02*
D03*
Y194000D02*
D03*
X361500Y189500D02*
D03*
X414217Y161823D02*
D03*
X399500Y174000D02*
D03*
X423000Y200000D02*
D03*
X221500Y356500D02*
D03*
X177500Y347000D02*
D03*
X415665Y372165D02*
D03*
Y367835D02*
D03*
X411335Y372165D02*
D03*
Y367835D02*
D03*
D74*
X286500Y194000D02*
D03*
D92*
X238500Y150000D02*
D03*
Y137008D02*
D03*
X219209D02*
D03*
Y150000D02*
D03*
M02*
