M48
;Layer_Color=9474304
;FILE_FORMAT=2:5
INCH,LZ
;TYPE=PLATED
T1F00S00C0.01181
T2F00S00C0.01200
T4F00S00C0.02800
T5F00S00C0.03504
T6F00S00C0.06181
T7F00S00C0.12598
;TYPE=NON_PLATED
T8F00S00C0.12795
%
T01
X01865Y01505
X01895Y0148
X02045Y0155
X02555Y0146
X0321365Y0243135
X03275Y0252972
X03445Y02455
X0349Y0248
X0354197Y0248819
X0358Y025
X0362209Y0248653
X0352Y02405
X03445Y02345
X03471Y0265115
X0351835Y0265931
X0343Y02725
X03355Y02815
X0324Y02825
X03335Y0292
X0342Y02925
X03535Y0297784
X0356284Y0300216
X03585Y0303
X0362Y0297
X04205Y0254
X04415
X0438Y02335
X046Y0225
X04515Y01955
X02705Y01885
X02535Y01755
X0222Y0187362
X0223Y0192
X022Y01915
X02175Y0185431
X02065Y01875
X02075Y01915
X0207Y01955
X0204Y0161
X0181846Y01755
X016Y01895
X0208Y02325
X02105Y02485
X02145Y02475
X0253Y02505
X0255425Y0254575
X0261Y0252
X02705Y02315
X0249722Y0232778
X0251Y0219
X0246Y02205
X02595Y022
X02575Y02175
X02915Y0227
X0309Y02655
X0307069Y02695
X0241654Y0305654
X0232362Y03085
X0205482Y0298
X02015Y03015
X0207319Y0323334
X0210666Y0338681
X0234103Y0340274
X02365Y03355
X0236561Y0331307
X0236Y03285
X0235504Y0348504
X0237528Y0350528
X0232278Y0355778
X0230254Y0353754
X02325Y03715
X0216362Y03835
X02135
X02045Y03735
X0197Y0390138
Y0393
X0221Y03145
X0294Y03865
X0315Y0389283
X03195Y03715
X03365Y03705
X0342Y03585
X0343623Y0380952
X03435Y03845
X03375Y03895
X0347Y04095
X0345Y0412
X0342Y04145
X0353528Y04095
X03595Y0412
X03625Y04145
X0366Y04065
X0368Y03855
X0365Y0378
X0369Y03715
X03625Y0364
X0402Y0369
X0397Y0384
X04015Y0411
X04065Y0414
X041Y0407
X0417Y04075
X0422Y04105
Y0414
X0322Y0354
T02
X02775Y0134
Y01365
Y0139
Y01415
Y0144
Y01465
Y0149
Y01515
Y0154
X0376482Y0153251
Y0150751
Y0148251
Y0145751
Y0143251
Y0140751
Y0138251
X03765Y0135
X0376482Y0155751
Y0158251
Y0160751
X0374982Y0162751
X0372982Y0164751
X0370982Y0166751
X0368982Y0168251
X0366482
X0363982
X0361482
X0358982
X0356482
X0353918Y0168312
X0351482Y0168251
X0348982
X0346482
X0343982
X0341482
X0338982
X0336482
X0334Y0169
Y01715
Y0174
Y01765
Y0179
Y01815
Y0184
Y01865
Y0189
Y01915
Y0194
X0333Y01965
X03205Y0196
X032Y01935
Y0191
Y01885
Y0186
Y01765
Y0174
Y01715
Y0169
X0317482Y0168251
X0314982
X03285Y0208
Y0217
X03375
Y0208
X03515Y02185
X03615Y01895
X03995Y0174
X0414217Y0161823
X0423Y02
X0387Y0235
X03885Y02685
X04545Y02625
X02865Y0257
X02585Y02495
X02535Y0275
X0294Y02955
X0294982Y0168251
X0292482
X0289982
X0287482
X0285482Y0166751
X0283482Y0165251
X0281482Y0163251
X0279482Y0161251
X02775Y0159
Y01565
X0297482Y0168251
X0299982
X0302482
X0304982
X0307482
X0309982
X0312482
X02365Y0197
X0178733Y0223057
X0171233Y0267057
X01775Y0347
X02215Y03565
X0224Y03275
X0287Y03405
X0271342Y03734
X0283233Y0416057
X0309Y04035
X0174233Y0397557
X0337Y0397
X0352Y03725
X0387Y03675
X0411335Y0367835
X0415665
Y0372165
X0411335
X04015Y03965
X04155Y0433
X0351Y04285
X0370733Y0337057
X0415233Y0327057
T04
X02865Y0194
T05
X0194492Y0385862
X0203508
X0211421Y0404839
X0219453
X0227484
X0235516
X02315Y0411846
X0223469
X0215437
X0207406
X0239492Y0385862
X0248508
T06
X0189492Y0408343
X0253508
T07
X0169Y0149
X04485Y01495
X01685Y04285
X0448Y0429
T08
X01965Y0421846
X02465
M30
