G04*
G04 #@! TF.GenerationSoftware,Altium Limited,Altium Designer,23.6.0 (18)*
G04*
G04 Layer_Color=0*
%FSLAX25Y25*%
%MOIN*%
G70*
G04*
G04 #@! TF.SameCoordinates,9EB9F688-6EA2-4756-8BD5-BABC090EB3C1*
G04*
G04*
G04 #@! TF.FilePolarity,Positive*
G04*
G01*
G75*
%ADD94C,0.00394*%
D94*
X382500Y402532D02*
Y406469D01*
X380532Y404500D02*
X384469D01*
X446000Y400032D02*
Y403969D01*
X444032Y402000D02*
X447969D01*
X190000Y224551D02*
Y228449D01*
X188051Y226500D02*
X191949D01*
X180532Y180000D02*
X184469D01*
X182500Y178032D02*
Y181969D01*
X167000Y224551D02*
Y228449D01*
X165051Y226500D02*
X168949D01*
X230035Y154740D02*
Y158677D01*
X228067Y156709D02*
X232004D01*
X214500Y347532D02*
Y351469D01*
X212532Y349500D02*
X216469D01*
X376654Y377532D02*
Y381469D01*
X374685Y379500D02*
X378622D01*
X350031Y372500D02*
X353968D01*
X352000Y370531D02*
Y374468D01*
X219984Y327419D02*
X223921D01*
X221953Y325451D02*
Y329388D01*
X219984Y327419D02*
X223921D01*
X221953Y325451D02*
Y329388D01*
X307500Y384032D02*
Y387969D01*
X305532Y386000D02*
X309469D01*
X348532Y432000D02*
X352469D01*
X350500Y430032D02*
Y433969D01*
X331032Y384000D02*
X334969D01*
X333000Y382032D02*
Y385969D01*
X314532Y365500D02*
X318469D01*
X316500Y363532D02*
Y367469D01*
X297532Y365500D02*
X301469D01*
X299500Y363532D02*
Y367469D01*
X409244Y161339D02*
Y165276D01*
X407276Y163307D02*
X411213D01*
X337279Y243032D02*
Y246969D01*
X335310Y245000D02*
X339247D01*
X337279Y233032D02*
Y236969D01*
X335310Y235000D02*
X339247D01*
X325032Y151500D02*
X328969D01*
X327000Y149532D02*
Y153469D01*
X182500Y196032D02*
Y199969D01*
X180532Y198000D02*
X184469D01*
X375500Y212532D02*
Y216469D01*
X373532Y214500D02*
X377469D01*
X289000Y179310D02*
Y183247D01*
X287032Y181279D02*
X290969D01*
X277500Y179310D02*
Y183247D01*
X275532Y181279D02*
X279469D01*
X266500Y225032D02*
Y228969D01*
X264532Y227000D02*
X268469D01*
X247756Y225032D02*
Y228969D01*
X245788Y227000D02*
X249725D01*
X245500Y319532D02*
Y323469D01*
X243532Y321500D02*
X247469D01*
X197000Y316532D02*
Y320469D01*
X195032Y318500D02*
X198969D01*
X225032Y307000D02*
X228969D01*
X227000Y305032D02*
Y308969D01*
X215532Y307000D02*
X219469D01*
X217500Y305032D02*
Y308969D01*
X206032Y307000D02*
X209969D01*
X208000Y305032D02*
Y308969D01*
X245500Y330532D02*
Y334469D01*
X243532Y332500D02*
X247469D01*
X388032Y215000D02*
X391969D01*
X390000Y213032D02*
Y216969D01*
X399532Y214779D02*
X403469D01*
X401500Y212810D02*
Y216747D01*
X394721Y360032D02*
Y363969D01*
X392753Y362000D02*
X396690D01*
X395000Y370532D02*
Y374469D01*
X393032Y372500D02*
X396969D01*
X251126Y369532D02*
Y373469D01*
X249157Y371500D02*
X253094D01*
X232500Y369532D02*
Y373469D01*
X230532Y371500D02*
X234469D01*
X214000Y369532D02*
Y373469D01*
X212032Y371500D02*
X215969D01*
X195000Y369532D02*
Y373469D01*
X193032Y371500D02*
X196969D01*
X413500Y430532D02*
Y434469D01*
X411532Y432500D02*
X415469D01*
X221500Y411532D02*
Y415469D01*
X219532Y413500D02*
X223469D01*
M02*
